<?xml version="1.0" standalone="no"?>
<!DOCTYPE svg PUBLIC "-//W3C//DTD SVG 20010904//EN"
 "http://www.w3.org/TR/2001/REC-SVG-20010904/DTD/svg10.dtd">
<svg version="1.0" xmlns="http://www.w3.org/2000/svg"
 width="123.000000pt" height="123.000000pt" viewBox="0 0 123.000000 123.000000"
 preserveAspectRatio="xMidYMid meet">
<metadata>
Created by potrace 1.14, written by Peter Selinger 2001-2017
</metadata>
<g transform="translate(0.000000,123.000000) scale(0.100000,-0.100000)"
fill="#000000" stroke="none">
<path d="M120 675 l0 -485 489 0 c382 0 490 3 493 13 2 6 4 223 3 482 l0 470
-493 3 -492 2 0 -485z m960 1 l0 -462 -227 1 c-187 0 -228 2 -228 14 0 8 22
21 52 30 84 26 163 117 159 184 -3 56 -150 -2 -192 -76 l-21 -37 -1 118 0 119
48 12 c70 18 127 72 150 141 10 30 16 58 14 62 -8 12 -36 10 -85 -7 -44 -15
-71 -36 -107 -84 l-18 -23 -2 43 c-1 30 8 62 26 98 36 75 38 137 5 198 -14 27
-30 51 -36 55 -23 14 -72 -76 -76 -139 -2 -42 26 -124 48 -137 7 -5 11 -55 10
-149 -1 -124 -2 -138 -13 -113 -29 65 -138 139 -181 123 -29 -12 6 -129 51
-168 34 -30 90 -54 137 -58 4 -1 7 -47 7 -104 l0 -103 -227 1 -228 0 -3 450
c-1 248 0 455 2 462 4 9 116 12 471 12 l465 0 0 -463z m-440 322 c25 -55 25
-112 0 -163 l-19 -40 0 40 c1 64 0 75 -11 75 -5 0 -10 -26 -10 -57 l-1 -58
-19 36 c-33 62 -30 129 7 186 22 33 31 29 53 -19z m168 -267 c-13 -50 -62
-105 -112 -126 -21 -9 -40 -14 -42 -12 -2 2 12 18 31 36 31 28 44 51 30 51 -4
0 -23 -16 -43 -36 -20 -19 -38 -31 -40 -25 -4 13 32 82 55 103 24 22 82 47
109 48 20 0 21 -3 12 -39z m-303 -133 c35 -23 80 -97 73 -120 -2 -6 -17 5 -32
25 -27 35 -46 47 -46 29 0 -4 15 -25 34 -47 19 -22 33 -41 31 -43 -1 -2 -24 7
-49 19 -61 28 -94 75 -102 148 -2 21 1 23 26 17 16 -3 45 -16 65 -28z m315
-156 c0 -51 -62 -135 -117 -158 -49 -21 -50 -17 -8 26 51 52 37 66 -15 15 -30
-29 -40 -35 -40 -22 0 28 36 91 62 107 54 35 118 52 118 32z"/>
<path d="M120 150 c0 -7 172 -10 495 -10 323 0 495 3 495 10 0 7 -172 10 -495
10 -323 0 -495 -3 -495 -10z"/>
<path d="M330 96 c0 -17 558 -17 563 -1 1 6 -98 11 -280 12 -224 1 -283 -1
-283 -11z"/>
</g>
</svg>
